# xmcd
#
# Track frame offsets:
# 150
# 19243
# 26191
# 37698
# 50781
#
# Disc length: 820 seconds
#
# Revision: 0
# Processed by: cddbd v1.4PL0 Copyright (c) Steve Scherf et al.
# Submitted via: Audion 3.0.2 (http://www.panic.com/audion/)
#
DISCID=3a033205
DTITLE=The Badger King - The Tongue and Tooth
DYEAR=1900
DGENRE=
TTITLE0=The She Trilogy
TTITLE1=You Are A Great Beast
TTITLE2=Sermon of the 12 Acknowledgements
TTITLE3=Red Ships of Spain
TTITLE4=Buck and I
EXTD=
EXTT0=
EXTT1=
EXTT2=
EXTT3=
EXTT4=
PLAYORDER=
